<svg width="114" height="17" viewBox="0 0 114 17" fill="none" xmlns="http://www.w3.org/2000/svg">
<g clip-path="url(#clip0_3009_4502)">
<path d="M35.8 2.40002C35.2 2.40002 34.8 2.60002 34.3 3.20002L28.5 11L26.3 3.40002C26.1 2.60002 25.6 2.40002 25.1 2.40002C24.4 2.40002 24 2.70002 23.7 3.30002L18.6 13.4H21.5L25 6.40002L27.2 13.4H29.6L34.8 6.50002V13.4H37V3.70002C37 2.80002 36.4 2.40002 35.8 2.40002Z" fill="#E6281E"/>
<path d="M15 4.20001L12.7 13.5H15.3L17.6 4.20001H15Z" fill="#E6281E"/>
<path d="M5.7 8.40001H3.8L4.5 5.60001H6.5C7.5 5.60001 8.1 6.10001 8 7.00001C7.9 7.90001 6.9 8.40001 5.7 8.40001ZM10.5 6.80001C10.6 5.60001 9.9 4.20001 7.3 4.20001H2.3L0 13.5H2.6L3.4 10H4.7L7 13.5H9.8L7.3 9.80001C9.6 9.20001 10.4 8.10001 10.5 6.80001Z" fill="#E6281E"/>
<path d="M43.8 10L46 6.60005L46.9 10H43.8ZM47.8 13.5H50.3L47.9 5.00005C47.6 4.00005 47 3.80005 46.3 3.80005C45.9 3.80005 45.5 4.00005 45.1 4.60005L38.9 13.5H41.4L42.7 11.6H47.3L47.8 13.5Z" fill="#E6281E"/>
<path d="M58.2 11.7C56.1 11.7 54.9 10.5 55.1 9C55.3 7 57.2 5.8 59.8 5.8C60.6 5.8 61.6 5.9 62.5 6.1L63 4.2C62.1 4.1 60.9 4 60 4C55.5 4 52.7 6 52.4 9C52.1 11.7 54 13.6 58.2 13.6C59 13.6 59.8 13.5 60.8 13.4L61.3 11.4C60.2 11.6 59.4 11.8 58.2 11.7Z" fill="#E6281E"/>
<path d="M70.5 1.7V4.6C70.5 5 70.3 5.5 70 5.8L68.5 7.3C67.8 8 67.8 9 68.5 9.7L70 11.2C70.3 11.5 70.5 11.9 70.5 12.4V14.9C70.5 15.8 71.3 16.6 72.2 16.6H111.9C112.8 16.6 113.6 15.8 113.6 14.9V1.7C113.6 0.8 112.8 0 111.9 0H72.2C71.3 0 70.5 0.8 70.5 1.7Z" fill="#E6281E"/>
<path d="M80.4 3.90002H82.2V12.7H80.4V9.00002H76.5V12.6H74.7V3.90002H76.5V7.30002H80.4V3.90002Z" fill="white"/>
<path d="M87.2 12.8C86.2 12.8 85.4 12.5 84.7 11.8C84 11.2 83.7 10.4 83.7 9.4C83.7 8.4 84 7.6 84.7 7C85.3 6.4 86.2 6 87.2 6C88.2 6 89 6.3 89.7 7C90.4 7.7 90.7 8.4 90.7 9.4C90.7 10.4 90.4 11.2 89.7 11.8C89 12.4 88.2 12.8 87.2 12.8ZM86 10.7C86.3 11 86.7 11.2 87.2 11.2C87.7 11.2 88.1 11 88.4 10.7C88.7 10.4 88.9 10 88.9 9.4C88.9 8.8 88.7 8.5 88.4 8.1C88.1 7.8 87.7 7.6 87.2 7.6C86.7 7.6 86.3 7.8 86 8.1C85.7 8.4 85.5 8.8 85.5 9.4C85.5 10 85.7 10.4 86 10.7Z" fill="white"/>
<path d="M99.7 6.10004C100.4 6.10004 101 6.30004 101.4 6.80004C101.8 7.30004 102 7.90004 102 8.80004V12.7H100.2V9.10004C100.2 8.60004 100.1 8.30004 99.9 8.00004C99.7 7.80004 99.5 7.60004 99.1 7.60004C98.6 7.60004 98.2 7.80004 97.8 8.30004C97.8 8.40004 97.8 8.50004 97.8 8.60004V12.5H96V9.10004C96 8.60004 95.9 8.30004 95.7 8.00004C95.5 7.80004 95.3 7.60004 94.9 7.60004C94.4 7.60004 94 7.80004 93.6 8.30004V12.6H91.8V6.20004H93.6V6.70004C94.1 6.30004 94.8 6.10004 95.4 6.10004C96.2 6.10004 96.9 6.40004 97.3 7.10004C98.1 6.40004 98.8 6.10004 99.7 6.10004Z" fill="white"/>
<path d="M110 9.30004C110 9.50004 110 9.70004 110 9.90004H105C105.1 10.4 105.3 10.7 105.6 11C105.9 11.2 106.3 11.4 106.8 11.4C107.5 11.4 108.1 11.1 108.6 10.6L109.8 11.5C109.1 12.4 108.1 12.9 106.8 12.9C105.7 12.9 104.9 12.6 104.3 12C103.7 11.4 103.3 10.6 103.3 9.60004C103.3 8.60004 103.6 7.80004 104.3 7.10004C104.9 6.50004 105.8 6.10004 106.8 6.10004C107.8 6.10004 108.5 6.40004 109.1 7.00004C109.7 7.60004 110 8.30004 110 9.30004ZM106.7 7.50004C105.8 7.50004 105.3 7.90004 105.1 8.60004H108.2C108 7.90004 107.5 7.50004 106.7 7.50004Z" fill="white"/>
</g>
<defs>
<clipPath id="clip0_3009_4502">
<rect width="113.5" height="16.6" fill="white"/>
</clipPath>
</defs>
</svg>
